<svg width="52" height="20" viewBox="0 0 52 20" fill="none" xmlns="http://www.w3.org/2000/svg">
<path d="M3.736 3.496C3.496 3.08 3.272 2.744 3.064 2.488C2.856 2.216 2.64 2 2.416 1.84C2.208 1.68 1.984 1.576 1.744 1.528C1.504 1.464 1.216 1.432 0.88 1.432V0.519999H8.44V1.432C7.64 1.432 7.072 1.496 6.736 1.624C6.416 1.736 6.256 1.944 6.256 2.248C6.256 2.584 6.44 3.064 6.808 3.688L10.528 10.048H10.624L13.336 5.488C13.848 4.624 14.208 3.944 14.416 3.448C14.64 2.952 14.752 2.552 14.752 2.248C14.752 1.944 14.632 1.736 14.392 1.624C14.168 1.496 13.768 1.432 13.192 1.432V0.519999H18.688V1.432C18.352 1.432 18.048 1.48 17.776 1.576C17.52 1.672 17.248 1.864 16.96 2.152C16.672 2.44 16.352 2.84 16 3.352C15.664 3.864 15.248 4.536 14.752 5.368L11.056 11.608V14.464C11.056 15.248 11.08 15.88 11.128 16.36C11.192 16.824 11.312 17.184 11.488 17.44C11.68 17.696 11.944 17.872 12.28 17.968C12.632 18.048 13.096 18.088 13.672 18.088V19H5.896V18.088C6.472 18.088 6.928 18.048 7.264 17.968C7.616 17.872 7.88 17.704 8.056 17.464C8.248 17.208 8.376 16.856 8.44 16.408C8.504 15.96 8.536 15.368 8.536 14.632V11.704L3.736 3.496ZM25.5416 9.84C26.1816 9.34667 26.6482 8.84667 26.9416 8.34C27.2349 7.82 27.3816 7.26 27.3816 6.66C27.3816 6.03333 27.2416 5.54 26.9616 5.18C26.6816 4.80667 26.3082 4.62 25.8416 4.62C24.9616 4.62 24.5216 5.29333 24.5216 6.64C24.5216 7.22667 24.6082 7.79333 24.7816 8.34C24.9549 8.87333 25.2082 9.37333 25.5416 9.84ZM24.4016 11.72C23.5616 12.2 22.9082 12.7667 22.4416 13.42C21.9749 14.06 21.7416 14.7267 21.7416 15.42C21.7416 16.1533 21.9749 16.76 22.4416 17.24C22.9216 17.7067 23.5349 17.94 24.2816 17.94C24.8416 17.94 25.4416 17.8 26.0816 17.52C26.7216 17.24 27.3282 16.8467 27.9016 16.34L24.4016 11.72ZM29.3416 14.82C29.6616 14.42 29.9549 14.0333 30.2216 13.66C30.5016 13.2733 30.7416 12.9133 30.9416 12.58C31.1416 12.2333 31.2949 11.92 31.4016 11.64C31.5082 11.36 31.5616 11.1333 31.5616 10.96C31.5616 10.7467 31.4616 10.5933 31.2616 10.5C31.0749 10.4067 30.7682 10.36 30.3416 10.36V9.66H34.9416V10.36C34.6482 10.36 34.3949 10.38 34.1816 10.42C33.9816 10.4467 33.8016 10.5 33.6416 10.58C33.4816 10.66 33.3282 10.7667 33.1816 10.9C33.0482 11.0333 32.9149 11.2067 32.7816 11.42L29.9416 15.58C30.5016 16.34 31.0816 16.92 31.6816 17.32C32.2949 17.7067 32.9016 17.9 33.5016 17.9C33.6749 17.9 33.8282 17.8867 33.9616 17.86C34.0949 17.82 34.2149 17.76 34.3216 17.68C34.4416 17.5867 34.5482 17.4667 34.6416 17.32C34.7482 17.1733 34.8549 16.9867 34.9616 16.76L35.4616 16.9C35.3149 17.6467 34.9882 18.22 34.4816 18.62C33.9749 19.0067 33.3149 19.2 32.5016 19.2C32.1682 19.2 31.8482 19.16 31.5416 19.08C31.2482 19.0133 30.9482 18.8933 30.6416 18.72C30.3349 18.5467 30.0082 18.32 29.6616 18.04C29.3149 17.76 28.9349 17.4133 28.5216 17C27.8549 17.6933 27.0816 18.2333 26.2016 18.62C25.3349 19.0067 24.4482 19.2 23.5416 19.2C22.9282 19.2 22.3616 19.1133 21.8416 18.94C21.3349 18.7533 20.8949 18.5067 20.5216 18.2C20.1482 17.88 19.8549 17.5067 19.6416 17.08C19.4282 16.64 19.3216 16.1667 19.3216 15.66C19.3216 14.7533 19.6816 13.92 20.4016 13.16C21.1216 12.3867 22.2749 11.6133 23.8616 10.84C23.4349 10.2133 23.1216 9.62667 22.9216 9.08C22.7349 8.53333 22.6416 7.96 22.6416 7.36C22.6416 6.77333 22.7216 6.24 22.8816 5.76C23.0549 5.26667 23.2949 4.84667 23.6016 4.5C23.9082 4.15333 24.2749 3.88667 24.7016 3.7C25.1282 3.5 25.6016 3.4 26.1216 3.4C26.5749 3.4 26.9882 3.47333 27.3616 3.62C27.7482 3.76667 28.0816 3.97333 28.3616 4.24C28.6416 4.50667 28.8549 4.82 29.0016 5.18C29.1616 5.54 29.2416 5.94 29.2416 6.38C29.2416 7.12667 28.9949 7.82667 28.5016 8.48C28.0216 9.13333 27.2216 9.84 26.1016 10.6L29.3416 14.82ZM51.9522 5.152C51.9522 6 51.8162 6.76 51.5442 7.432C51.2722 8.104 50.8402 8.672 50.2482 9.136C49.6722 9.6 48.9122 9.96 47.9682 10.216C47.0402 10.472 45.9042 10.6 44.5602 10.6H42.4002V15.232C42.4002 15.824 42.4322 16.312 42.4962 16.696C42.5762 17.064 42.7282 17.352 42.9522 17.56C43.1922 17.768 43.5282 17.912 43.9602 17.992C44.4082 18.056 44.9922 18.088 45.7122 18.088V19H37.2402V18.088C37.8002 18.072 38.2482 18.024 38.5842 17.944C38.9362 17.864 39.2082 17.728 39.4002 17.536C39.5922 17.344 39.7202 17.072 39.7842 16.72C39.8482 16.368 39.8802 15.912 39.8802 15.352V4.168C39.8802 3.608 39.8482 3.16 39.7842 2.824C39.7362 2.472 39.6242 2.2 39.4482 2.008C39.2882 1.8 39.0482 1.664 38.7282 1.6C38.4082 1.52 37.9922 1.464 37.4802 1.432V0.519999H45.0162C47.2242 0.519999 48.9282 0.927999 50.1282 1.744C51.3442 2.56 51.9522 3.696 51.9522 5.152ZM42.4002 9.4H44.1042C45.7042 9.4 46.8882 9.096 47.6562 8.488C48.4402 7.864 48.8322 6.848 48.8322 5.44C48.8322 4.08 48.5202 3.112 47.8962 2.536C47.2882 1.944 46.3282 1.648 45.0162 1.648H42.8082C42.5362 1.648 42.4002 1.784 42.4002 2.056V9.4Z" fill="#FFFCF9"/>
</svg>
